<?xml version="1.0" encoding="UTF-8"?>
<svg width="162px" height="162px" viewBox="0 0 162 162" version="1.1" xmlns="http://www.w3.org/2000/svg" xmlns:xlink="http://www.w3.org/1999/xlink">
    <!-- Generator: Sketch 46.2 (44496) - http://www.bohemiancoding.com/sketch -->
    <title>Icon</title>
    <desc>Created with Sketch.</desc>
    <defs>
        <path d="M151.597231,100.3073 C152.344271,101.502563 152.717785,103.146027 152.717785,105.237738 C152.717785,109.122346 151.771549,112.210065 149.879048,114.500987 C140.018121,126.553231 129.509917,132.579262 118.354121,132.579262 C108.692405,132.579262 100.973108,128.844119 95.1959994,121.37372 C89.4188908,113.903321 86.5303798,103.195909 86.5303798,89.2511642 C86.5303798,85.8645833 86.6797855,82.4780531 86.9786015,79.0914722 C80.4046503,80.2867361 73.2331747,81.1831705 65.4639596,81.7808024 C60.2844829,82.1792237 56.748547,82.4282333 54.8560459,82.5278386 C52.8639395,92.6875814 50.0750323,105.13806 46.4892408,119.879647 C44.397529,128.54531 40.4133759,132.878077 34.5366619,132.878077 C28.1619214,132.878077 24.9745989,129.989566 24.9745989,124.212457 C24.9745989,122.917588 25.2236085,121.124719 25.7216351,118.833797 C29.108216,105.187868 31.7975193,93.6338237 33.7896258,84.1713182 L26.6180785,84.4701327 C23.3311029,84.4701327 20.940611,83.8974107 19.4465312,82.7519495 C17.9524514,81.6064883 17.2054227,79.7389165 17.2054227,77.1491781 C17.2054227,73.8622025 18.151659,71.4468097 20.0441601,69.9029272 C21.9366612,68.3590447 25.0741818,67.4875113 29.456816,67.2883006 L37.3753994,66.9894861 C39.9651378,52.9451358 41.2599875,42.2377244 41.2599875,34.8669306 C41.2599875,30.1854805 40.5627607,26.998158 39.1682862,25.3048675 C37.7738117,23.6115771 35.9311409,22.7649445 33.6402185,22.7649445 C26.667846,22.7649445 18.7991437,28.5917684 10.0338754,40.245591 C8.7390062,41.9388815 7.2947507,42.785514 5.70106555,42.785514 C4.30659105,42.785514 3.11134512,42.1380892 2.11529191,40.84322 C1.11923869,39.5483508 0.621219557,37.9048877 0.621219557,35.9127812 C0.621219557,32.8250163 1.8662674,29.53809 4.35640044,26.0519037 C8.73903458,19.9759791 14.267047,14.9708868 20.9406035,11.0364766 C27.6141601,7.10206636 34.3872204,5.13489077 41.2599875,5.13489077 C47.7343334,5.13489077 52.7394258,7.35107593 56.2754147,11.7835127 C59.8114036,16.2159495 61.5793715,23.1135146 61.5793715,32.4764148 C61.5793715,40.7436565 60.3841256,51.9490871 57.9935979,66.0930427 L72.6355069,65.3460066 C78.9106422,65.0471906 84.2892489,64.5491715 88.7714883,63.8519342 C90.5643841,52.8953488 93.3034894,42.6361546 96.9888863,33.0740438 C100.674283,23.5119329 105.256059,15.7428343 110.734352,9.76651506 C116.212645,3.79019577 122.33828,0.802080947 129.111442,0.802080947 C134.091708,0.802080947 138.026059,2.76925654 140.914613,6.70366674 C143.803168,10.6380769 145.247423,15.792575 145.247423,22.1673156 C145.247423,46.8694353 132.647539,64.0012936 107.447393,73.5634045 C107.148577,77.5476174 106.999171,81.6811762 106.999171,85.964205 C106.999171,96.4227638 108.294021,103.843249 110.883759,108.225883 C113.473498,112.608517 117.109037,114.799801 121.790487,114.799801 C125.874305,114.799801 129.609449,113.72906 132.99603,111.587546 C136.382611,109.446031 140.217358,105.785591 144.500387,100.606114 C145.695651,99.2116396 147.040303,98.5144128 148.534382,98.5144128 C149.829252,98.5144128 150.850191,99.1120357 151.597231,100.3073 Z M121.416969,19.7767998 C118.976639,23.7610127 116.66085,29.1894213 114.469533,36.0621885 C112.278216,42.9349556 110.535149,50.4550446 109.24028,58.622681 C117.208705,55.3357054 123.085331,50.6543255 126.870333,44.5784009 C130.655336,38.5024763 132.547808,30.6835758 132.547808,21.1214649 C132.547808,18.8305425 132.149393,17.0376736 131.35255,15.7428045 C130.555708,14.4479353 129.55967,13.8005104 128.364406,13.8005104 C126.173089,13.8005104 123.8573,15.792587 121.416969,19.7767998 Z" id="path-1"></path>
        <linearGradient x1="93.7587019%" y1="3.55654783%" x2="5.91412009%" y2="53.6139958%" id="linearGradient-3">
            <stop stop-color="#FFBC42" offset="0%"></stop>
            <stop stop-color="#FAA645" offset="12.8948103%"></stop>
            <stop stop-color="#F17D4A" offset="36.7515365%"></stop>
            <stop stop-color="#D81159" offset="100%"></stop>
        </linearGradient>
    </defs>
    <g id="Page-1" stroke="none" stroke-width="1" fill="none" fill-rule="evenodd">
        <g id="Icon">
            <g id="Rectangle-6" transform="translate(4.500000, 14.500000)">
                <mask id="mask-2" fill="white">
                    <use xlink:href="#path-1"></use>
                </mask>
                <use id="Mask" fill="#CBC9C9" xlink:href="#path-1"></use>
                <rect fill="url(#linearGradient-3)" mask="url(#mask-2)" x="-5.89765402" y="-15.7270774" width="177.552718" height="165.134313"></rect>
            </g>
        </g>
    </g>
</svg>