<?xml version="1.0" encoding="UTF-8"?>
<svg width="227px" height="194px" viewBox="0 0 227 194" version="1.1" xmlns="http://www.w3.org/2000/svg" xmlns:xlink="http://www.w3.org/1999/xlink">
    <!-- Generator: Sketch 42 (36781) - http://www.bohemiancoding.com/sketch -->
    <title>Calendar</title>
    <desc>Created with Sketch.</desc>
    <defs>
        <path d="M169.095909,17.9343742 L208.070937,17.9343742 L208.070937,177.377896 L0.914594429,177.377896 L0.914594429,17.9343742 L34.4464869,17.9343742 M53.471746,17.9343742 L150.161738,17.9343742" id="path-1"></path>
        <mask id="mask-2" maskContentUnits="userSpaceOnUse" maskUnits="objectBoundingBox" x="0" y="0" width="207.156343" height="159.443522" fill="white">
            <use xlink:href="#path-1"></use>
        </mask>
        <rect id="path-3" x="148.190417" y="0.682820051" width="21.3075096" height="33.4965381"></rect>
        <mask id="mask-4" maskContentUnits="userSpaceOnUse" maskUnits="objectBoundingBox" x="0" y="0" width="21.3075096" height="33.4965381" fill="white">
            <use xlink:href="#path-3"></use>
        </mask>
        <rect id="path-5" x="32.1828652" y="0.682820051" width="21.3075096" height="33.4965381"></rect>
        <mask id="mask-6" maskContentUnits="userSpaceOnUse" maskUnits="objectBoundingBox" x="0" y="0" width="21.3075096" height="33.4965381" fill="white">
            <use xlink:href="#path-5"></use>
        </mask>
        <path d="M94.5912448,137.267945 L81.6942409,124.370941 C80.5211621,123.197863 78.6216953,123.200265 77.4486579,124.373303 L70.880685,130.941275 C69.707074,132.114886 69.7065905,134.015125 70.8783239,135.186858 L94.5485151,158.85705 L94.679057,158.726508 L94.7217868,158.769237 L149.505649,103.985376 C151.067235,102.423789 151.071261,99.8959814 149.505524,98.3302453 L144.344862,93.1695827 C142.783206,91.6079273 140.246796,91.6123937 138.689732,93.1694586 L94.5912448,137.267945 Z" id="path-7"></path>
        <mask id="mask-8" maskContentUnits="userSpaceOnUse" maskUnits="objectBoundingBox" x="0" y="0" width="80.6783331" height="66.8570496" fill="white">
            <use xlink:href="#path-7"></use>
        </mask>
    </defs>
    <g id="Icons" stroke="none" stroke-width="1" fill="none" fill-rule="evenodd">
        <g id="Calendar" stroke="#979797">
            <g transform="translate(9.000000, 8.000000)">
                <use id="Rectangle-7" mask="url(#mask-2)" stroke-width="8" xlink:href="#path-1"></use>
                <path d="M4.36472774,57.85 L204.432576,57.85" id="Line" stroke-width="2" stroke-linecap="square"></path>
                <use id="Rectangle-8" mask="url(#mask-4)" stroke-width="4" xlink:href="#path-3"></use>
                <use id="Rectangle-8-Copy" mask="url(#mask-6)" stroke-width="4" xlink:href="#path-5"></use>
            </g>
            <use id="Combined-Shape" mask="url(#mask-8)" stroke-width="4" xlink:href="#path-7"></use>
            <path d="M13.5,102.5 L91.5,102.5" id="Line" stroke-linecap="square"></path>
            <path d="M176.5,102.5 L213.5,102.5" id="Line-Copy" stroke-linecap="square"></path>
            <path d="M12.5,144.5 L51.5,144.5" id="Line" stroke-linecap="square"></path>
            <path d="M140.493244,144.5 L214.5,144.5" id="Line-Copy-2" stroke-linecap="square"></path>
        </g>
    </g>
</svg>