<?xml version="1.0" encoding="UTF-8"?>
<svg width="960" height="324" viewBox="0 0 960 324" version="1.1" xmlns="http://www.w3.org/2000/svg" xmlns:xlink="http://www.w3.org/1999/xlink">
    <defs>
        <path d="M483.022215,137.336536 C479.775661,140.060387 475.970965,142.65559 471.608093,145.122172 C463.903269,149.478151 455.656378,151.656109 446.867171,151.656109 C434.88189,151.656109 425.579168,148.389173 418.958727,141.855204 C412.338285,135.321234 409.028114,126.380147 409.028114,115.031674 C409.028114,107.122132 410.6832,99.7571985 413.993421,92.9366516 C417.303641,86.1161047 421.89793,80.6998692 427.776425,76.6877828 C433.654921,72.6756964 440.303798,70.6696833 447.723258,70.6696833 C454.3437,70.6696833 459.651387,72.647039 463.646481,76.60181 C467.641575,80.5565809 469.639092,85.9155016 469.639092,92.678733 C469.639092,100.588275 466.814032,107.380062 461.163828,113.054299 C455.513624,118.728535 445.954079,123.227736 432.484905,126.552036 C435.338544,131.825064 440.760375,134.461538 448.750563,134.461538 C453.887112,134.461538 459.736983,132.656127 466.300352,129.045249 C470.430125,126.773229 474.209629,124.058744 477.638907,120.90176 C477.440837,119.021069 477.341802,117.064374 477.341802,115.031674 C477.341802,107.122132 478.996888,99.7571985 482.307108,92.9366516 C485.617329,86.1161047 490.211618,80.6998692 496.090113,76.6877828 C501.968608,72.6756964 508.617486,70.6696833 516.036946,70.6696833 C522.657387,70.6696833 527.965075,72.647039 531.960169,76.60181 C535.955263,80.5565809 537.95278,85.9155016 537.95278,92.678733 C537.95278,100.588275 535.12772,107.380062 529.477516,113.054299 C523.827312,118.728535 514.210695,123.227736 500.627376,126.552036 C503.366868,131.825064 507.989693,134.461538 514.495989,134.461538 C519.175956,134.461538 523.02831,133.37256 526.053167,131.19457 C529.078024,129.01658 532.587946,125.348442 536.58304,120.190045 C537.952787,118.47058 539.493728,117.61086 541.205911,117.61086 C542.689803,117.61086 543.859778,118.298636 544.715869,119.674208 C545.571961,121.049781 546,122.941164 546,125.348416 C546,129.475134 545.029777,133.028643 543.089303,136.00905 C539.893228,140.938185 535.698443,144.778267 530.504821,147.529412 C525.311199,150.280557 519.118896,151.656109 511.927727,151.656109 C500.969756,151.656109 492.466041,148.360516 486.416327,141.769231 C485.153061,140.392877 484.02169,138.915312 483.022215,137.336536 Z M287.687013,139.632478 C287.651121,139.667058 287.615237,139.701562 287.579361,139.735992 C279.298873,147.682767 271.443518,151.656109 264.013159,151.656109 C256.593699,151.656109 251.200403,149.019634 247.83311,143.746606 C246.881046,142.255718 246.063577,140.627382 245.380701,138.861593 C242.875763,141.354046 240.298118,143.612845 237.647747,145.638009 C232.397052,149.650095 227.317652,151.656109 222.409394,151.656109 C218.642591,151.656109 215.18974,150.366529 212.050738,147.78733 C208.911735,145.208132 206.543251,141.68328 204.945214,137.21267 C199.009646,146.841677 191.533225,151.656109 182.515727,151.656109 C175.438704,151.656109 169.788585,149.076949 165.5652,143.918552 C164.4901,142.605437 163.551841,141.188335 162.75042,139.667242 C153.900934,147.65985 144.623964,151.656109 134.919351,151.656109 C123.847234,151.656109 115.001088,147.357509 108.380646,138.760181 C101.760205,130.162853 98.4500343,117.840201 98.4500343,101.791855 C98.4500343,97.8943998 98.62125,93.9970029 98.9636866,90.0995475 C91.4300811,91.47512 83.2117256,92.5067839 74.3083737,93.1945701 C68.3728057,93.6530943 64.3206999,93.9396676 62.1519347,94.0542986 C59.8690239,105.746665 56.6729968,120.07533 52.5637574,137.040724 C50.1667011,147.013625 45.6009481,152 38.8663614,152 C31.5610469,152 27.9084445,148.67575 27.9084445,142.027149 C27.9084445,140.536946 28.1938041,138.473618 28.7645317,135.837104 C32.64548,120.132651 35.7273633,106.83565 38.0102741,95.9457014 L29.7918365,96.2895928 C26.0250337,96.2895928 23.2855819,95.6304742 21.5733988,94.3122172 C19.8612157,92.9939602 19.005137,90.8446605 19.005137,87.8642534 C19.005137,84.081429 20.0895034,81.301668 22.2582686,79.5248869 C24.4270338,77.7481057 28.0225643,76.7450992 33.044968,76.5158371 L42.1194929,76.1719457 C45.0872769,60.008969 46.5711466,47.6863169 46.5711466,39.2036199 C46.5711466,33.815961 45.7721399,30.1478227 44.1741023,28.199095 C42.5760648,26.2503673 40.464404,25.2760181 37.8390566,25.2760181 C29.848869,25.2760181 20.8315067,31.9818334 10.7866994,45.3936652 C9.30280741,47.3423929 7.64772194,48.3167421 5.82139333,48.3167421 C4.2233558,48.3167421 2.85362989,47.5716515 1.71217451,46.081448 C0.570719129,44.5912444 0,42.6998606 0,40.4072398 C0,36.8536776 1.42679782,33.07091 4.28043627,29.0588235 C9.30283994,22.06633 15.6378223,16.3062067 23.2855733,11.7782805 C30.9333244,7.25035443 38.6951045,4.98642534 46.5711466,4.98642534 C53.9906066,4.98642534 59.7263339,7.53692774 63.7785005,12.638009 C67.8306671,17.7390904 69.85672,25.6771709 69.85672,36.4524887 C69.85672,45.9668651 68.4869941,58.8626637 65.7475011,75.1402715 L82.5268113,74.280543 C89.7179802,73.9366499 95.8817468,73.3635033 101.018296,72.561086 C103.072916,59.9516715 106.211871,48.1448514 110.435256,37.1402715 C114.658641,26.1356916 119.909257,17.1946045 126.187261,10.3167421 C132.465266,3.43887964 139.485111,0 147.247008,0 C152.954285,0 157.462966,2.2639291 160.773186,6.7918552 C164.083407,11.3197813 165.738492,17.2518487 165.738492,24.5882353 C165.738492,53.0167334 151.299298,72.7329767 122.420477,83.7375566 C122.078041,88.3227982 121.906825,93.079915 121.906825,98.0090498 C121.906825,110.045309 123.390695,118.585193 126.358479,123.628959 C129.326263,128.672725 133.492512,131.19457 138.857353,131.19457 C143.53732,131.19457 147.817713,129.962305 151.698661,127.497738 C154.039854,126.01098 156.567949,123.88808 159.282975,121.129009 C159.633404,112.876772 161.727463,105.026897 165.5652,97.5791855 C169.788585,89.3830661 175.410168,82.7918801 182.430119,77.8054299 C189.450069,72.8189796 196.897954,70.3257919 204.773996,70.3257919 C207.285198,70.3257919 208.968819,70.8129665 209.824911,71.7873303 C210.681002,72.7616942 211.394401,74.5097913 211.965129,77.0316742 C214.362185,76.57315 216.87335,76.3438914 219.498697,76.3438914 C225.091828,76.3438914 227.888352,78.3499045 227.888352,82.361991 C227.888352,84.7692428 227.032273,90.5007089 225.32009,99.5565611 C222.694743,112.739131 221.382089,121.909476 221.382089,127.067873 C221.382089,128.787339 221.810128,130.162891 222.66622,131.19457 C223.522311,132.22625 224.635214,132.742081 226.00496,132.742081 C228.173725,132.742081 230.799033,131.337872 233.880963,128.529412 C236.244786,126.375338 239.246494,123.192917 242.886143,118.982087 C243.118449,114.491633 243.740131,109.134135 244.751196,102.909502 C246.063869,94.8280139 247.747491,87.291136 249.802111,80.2986425 C250.82942,76.6304492 252.199146,74.1086042 253.911329,72.7330317 C255.623512,71.3574592 258.362964,70.6696833 262.129767,70.6696833 C267.951189,70.6696833 270.861857,72.6183817 270.861857,76.5158371 C270.861857,79.3816131 269.777491,86.0301138 267.608725,96.4615385 C264.869233,109.070953 263.499507,117.610837 263.499507,122.081448 C263.499507,125.520379 263.956082,128.156854 264.869246,129.99095 C265.782411,131.825047 267.323352,132.742081 269.492117,132.742081 C271.546737,132.742081 274.114973,131.309215 277.196903,128.443439 C279.648158,126.164105 282.749253,122.833332 286.500251,118.451051 C286.870386,105.126067 288.962159,92.4087012 292.775616,80.2986425 C293.802925,76.9743424 295.486547,74.5384693 297.82653,72.9909502 C300.166514,71.4434312 303.448149,70.6696833 307.671534,70.6696833 C309.954445,70.6696833 311.552458,70.9562566 312.465622,71.5294118 C313.378787,72.102567 313.835362,73.1915455 313.835362,74.7963801 C313.835362,76.6304767 312.979283,80.7571323 311.2671,87.1764706 C310.125645,91.7617122 309.212494,95.7737385 308.527621,99.2126697 C307.842748,102.651601 307.272029,106.892886 306.815447,111.936652 C310.582249,102.078382 314.805571,94.0543296 319.485538,87.8642534 C324.165505,81.6741772 328.759794,77.2609483 333.268543,74.6244344 C337.777291,71.9879205 341.915005,70.6696833 345.681808,70.6696833 C349.334465,70.6696833 352.102453,71.6153752 353.985854,73.5067873 C355.869256,75.3981995 356.810942,78.1779605 356.810942,81.8461538 C356.810942,84.8265609 356.183151,90.4433976 354.92755,98.6968326 C353.786095,105.689326 352.872944,112.309169 352.188071,118.556561 C351.503198,124.803953 351.160766,131.767684 351.160766,139.447964 C351.160766,143.803943 350.276152,146.927592 348.506896,148.819005 C346.73764,150.710417 343.855508,151.656109 339.860415,151.656109 C336.093612,151.656109 333.35416,150.681759 331.641977,148.733032 C329.929794,146.784304 329.073715,143.861256 329.073715,139.963801 C329.073715,135.378559 329.872722,127.813024 331.470759,117.266968 C332.840506,108.096485 333.525369,102.25039 333.525369,99.7285068 C333.525369,97.8944101 332.897578,96.9773756 331.641977,96.9773756 C330.158085,96.9773756 328.07496,98.8974167 325.39254,102.737557 C322.71012,106.577696 319.970668,111.650044 317.174102,117.954751 C314.377537,124.259458 312.123196,130.907959 310.411013,137.900452 C309.155412,143.288111 307.700078,146.927592 306.044968,148.819005 C304.389858,150.710417 301.793086,151.656109 298.254574,151.656109 C293.917044,151.656109 290.863696,149.363522 289.09444,144.778281 C288.537701,143.335423 288.068559,141.620158 287.687013,139.632478 Z M146.390921,14.959276 C143.879719,14.959276 141.225875,17.2518624 138.429309,21.8371041 C135.632743,26.4223457 132.978899,32.6696437 130.467698,40.5791855 C127.956496,48.4887273 125.958979,57.1432411 124.475087,66.5429864 C133.60673,62.7601621 140.341216,57.372584 144.678746,50.3800905 C149.016276,43.387597 151.185009,34.3891953 151.185009,23.3846154 C151.185009,20.7481014 150.728434,18.6847737 149.81527,17.1945701 C148.902105,15.7043666 147.760667,14.959276 146.390921,14.959276 Z M265.382899,59.321267 C260.588786,59.321267 256.993255,58.2036311 254.596199,55.9683258 C252.199143,53.7330205 251.000633,50.6093715 251.000633,46.5972851 C251.000633,42.5851986 252.57011,39.232291 255.709113,36.5384615 C258.848115,33.8446321 262.757541,32.4977376 267.437508,32.4977376 C271.660893,32.4977376 275.085208,33.5294014 277.710555,35.5927602 C280.335902,37.6561189 281.648556,40.5791666 281.648556,44.361991 C281.648556,48.9472326 280.164687,52.5867135 277.196903,55.280543 C274.229119,57.9743724 270.291157,59.321267 265.382899,59.321267 Z M381.806615,151.656109 C376.784211,151.656109 372.988929,150.280557 370.420654,147.529412 C367.85238,144.778267 366.568262,141.167443 366.568262,136.696833 C366.568262,131.538436 368.023596,127.41178 370.934307,124.316742 C373.845018,121.221704 377.92566,119.674208 383.176354,119.674208 C388.198758,119.674208 391.99404,120.906473 394.562315,123.371041 C397.13059,125.835608 398.414708,129.475089 398.414708,134.289593 C398.414708,139.562621 396.930838,143.775248 393.963054,146.927602 C390.99527,150.079955 386.943164,151.656109 381.806615,151.656109 Z M188.679556,134.289593 C191.190758,134.289593 193.587778,132.799412 195.870689,129.819005 C198.153599,126.838597 199.808685,122.883886 200.835995,117.954751 L207.17104,86.3167421 C202.376928,86.4313731 197.953855,88.2367849 193.901688,91.7330317 C189.849521,95.2292784 186.624958,99.8431086 184.227902,105.574661 C181.830846,111.306213 180.632336,117.381567 180.632336,123.800905 C180.632336,127.354467 181.345734,129.990942 182.772554,131.710407 C184.199373,133.429873 186.168354,134.289593 188.679556,134.289593 Z M444.812562,87.520362 C440.589177,87.520362 437.022182,89.9848924 434.111471,94.9140271 C431.20076,99.8431619 429.745426,105.803887 429.745426,112.79638 L429.745426,113.140271 C436.480013,111.535437 441.787701,109.128221 445.668649,105.918552 C449.549597,102.708883 451.490042,98.98343 451.490042,94.7420814 C451.490042,92.5640917 450.890787,90.8159945 449.692259,89.4977376 C448.493731,88.1794806 446.867181,87.520362 444.812562,87.520362 Z M513.126249,87.520362 C508.902865,87.520362 505.33587,89.9848924 502.425159,94.9140271 C499.514448,99.8431619 498.059114,105.803887 498.059114,112.79638 L498.059114,113.140271 C504.7937,111.535437 510.101388,109.128221 513.982337,105.918552 C517.863285,102.708883 519.80373,98.98343 519.80373,94.7420814 C519.80373,92.5640917 519.204475,90.8159945 518.005947,89.4977376 C516.807419,88.1794806 515.180869,87.520362 513.126249,87.520362 Z" id="path-1"></path>
        <linearGradient x1="4.83921902%" y1="0%" x2="82.1053932%" y2="100%" id="linearGradient-3">
            <stop stop-color="#D81159" offset="0%"></stop>
            <stop stop-color="#FFBC42" offset="100%"></stop>
        </linearGradient>
    </defs>
    <g id="Page-1" stroke="none" stroke-width="1" fill="none" fill-rule="evenodd">
        <g id="hainee-outer">
            <g id="letter-mask" transform="translate(207.000000, 86.000000)">
                <mask id="mask-2" fill="white">
                    <use xlink:href="#path-1"></use>
                </mask>
                <use id="Mask" fill="#000000" xlink:href="#path-1"></use>
                <rect id="Rectangle" fill="url(#linearGradient-3)" mask="url(#mask-2)" x="-19" y="-6" width="696" height="178"></rect>
            </g>
        </g>
    </g>
</svg>
